<?xml version="1.0" encoding="UTF-8"?>
<svg version="1.1" xmlns="http://www.w3.org/2000/svg" width="725" height="650">
<path d="M0 0 C239.25 0 478.5 0 725 0 C725 214.5 725 429 725 650 C485.75 650 246.5 650 0 650 C0 435.5 0 221 0 0 Z " fill="#7EA7C3" transform="translate(0,0)"/>
<path d="M0 0 C239.25 0 478.5 0 725 0 C725 156.75 725 313.5 725 475 C716.40910108 474.38636436 708.09678059 473.72802634 699.625 472.4375 C698.6865625 472.29892578 697.748125 472.16035156 696.78125 472.01757812 C689.40255121 470.92583188 687.90315181 468.41728885 683.44628906 462.41845703 C679.85768267 457.48990262 676.86019616 452.24681368 673.875 446.9375 C672.92947266 445.27823486 672.92947266 445.27823486 671.96484375 443.58544922 C666.63700514 434.207662 661.39329315 424.7814555 656.18701172 415.33569336 C652.2291978 408.16070583 648.15973352 401.05985169 644 394 C644.86008456 381.06673996 644.86008456 381.06673996 645.51171875 375.47265625 C648.98157642 344.63187161 648.67629213 311.99622436 641.453125 281.72265625 C641.00837711 279.05033488 641.10002114 277.52358938 642 275 C642.54527344 274.50113281 643.09054687 274.00226563 643.65234375 273.48828125 C652.74834632 264.82764291 659.20813517 255.36132018 664.375 244 C664.69670166 243.30140869 665.01840332 242.60281738 665.34985352 241.88305664 C670.14846843 230.80045063 671.51266413 219.74278635 671.375 207.75 C671.36629883 206.48091797 671.35759766 205.21183594 671.34863281 203.90429688 C671.19916742 194.30420828 670.35305806 185.30018186 668 176 C667.59974609 174.34291016 667.59974609 174.34291016 667.19140625 172.65234375 C663.51632327 159.20970688 656.77098818 146.77961143 648 136 C647.32453125 135.14921875 646.6490625 134.2984375 645.953125 133.421875 C628.79437024 113.00671423 602.3798997 105.06873588 577 101 C576.11683105 100.85288574 575.23366211 100.70577148 574.32373047 100.55419922 C554.67650645 97.3688423 534.85504189 97.28235093 515 97 C514.36199463 96.61779297 513.72398926 96.23558594 513.06665039 95.84179688 C493.44441311 84.12871135 474.32291143 74.8176249 452.84936523 67.03540039 C450.94219191 66.34237305 449.03804621 65.64095918 447.13696289 64.93139648 C433.02422728 59.68980325 418.50450853 56.76564457 403.6875 54.25 C402.46119873 54.03931885 401.23489746 53.8286377 399.97143555 53.61157227 C385.44802488 51.23847866 370.93330843 50.76297972 356.25 50.75 C355.44895844 50.74899292 354.64791687 50.74798584 353.82260132 50.74694824 C333.63825625 50.76395801 313.78748586 52.4567778 294.17773438 57.45410156 C291.88023963 58.03002065 289.57516703 58.56053074 287.265625 59.0859375 C255.20016968 66.51826449 224.74289381 79.92855221 197.4609375 98.31640625 C196.64133545 98.86590942 195.8217334 99.4154126 194.97729492 99.98156738 C192.9833724 101.31884803 190.99098119 102.65834594 189 104 C174.7292669 104.17555729 160.45843319 104.34153676 146.1875 104.5 C145.11833344 104.51187725 144.04916687 104.5237545 142.94760132 104.53599167 C98.62789259 105.0247031 54.32339873 105.07803415 10 105 C10 142.29 10 179.58 10 218 C15.94 218 21.88 218 28 218 C28.33 215.36 28.66 212.72 29 210 C29.49428402 207.7473133 30.03166396 205.50367211 30.6105957 203.27124023 C30.93796219 201.99889023 31.26532867 200.72654022 31.60261536 199.41563416 C31.96021813 198.04658955 32.31794326 196.6775769 32.67578125 195.30859375 C33.04633354 193.87633435 33.41645795 192.44396418 33.78617859 191.01148987 C34.75835922 187.24980217 35.7365974 183.48971544 36.71606445 179.72991943 C37.69938004 175.95051399 38.67644127 172.16949285 39.65429688 168.38867188 C41.10028684 162.80317909 42.54782678 157.2180927 44.0012207 151.63452148 C44.29132523 150.51947739 44.58142975 149.40443329 44.88032532 148.25559998 C46.57023941 141.8326644 48.28872596 135.41727763 50 129 C84.32 129 118.64 129 154 129 C153 134 153 134 150.91015625 136.01953125 C144.45485707 142.35086035 138.60083926 148.88721942 133 156 C132.14055291 157.05829174 131.27982791 158.11554669 130.41796875 159.171875 C82.6401881 218.17980789 59.96655762 295.64723783 67.6875 371.1875 C68.04819755 374.13963356 68.50825594 377.06705619 69 380 C69.16661133 381.02061523 69.33322266 382.04123047 69.50488281 383.09277344 C71.86569527 397.28618997 74.59660622 411.29061346 79 425 C79.27682617 425.8647998 79.55365234 426.72959961 79.83886719 427.62060547 C85.9386089 446.40451278 93.05870447 464.76623332 103.21826172 481.74389648 C106.12320578 486.76716792 107.34789965 491.21094976 107 497 C108.65 497 110.3 497 112 497 C112.47308594 497.72703125 112.94617188 498.4540625 113.43359375 499.203125 C121.49967216 511.46733778 130.36945044 522.93151845 140 534 C140.75152344 534.86496094 141.50304687 535.72992187 142.27734375 536.62109375 C151.45026128 546.98831519 161.10387977 556.44824122 172 565 C173.05714491 565.8579534 174.11308852 566.71738864 175.16796875 567.578125 C210.60391264 596.27694146 254.02988561 617.5378817 299 626 C299.80300537 626.15629883 300.60601074 626.31259766 301.43334961 626.47363281 C340.50023457 633.88948094 380.99658827 633.09351451 419.7578125 624.48974609 C421.84448565 624.03396796 423.93492201 623.61562878 426.03125 623.20703125 C468.52786146 614.54710672 508.69930279 592.28754274 542 565 C542.56396484 564.54044922 543.12792969 564.08089844 543.70898438 563.60742188 C557.40948426 552.37519905 570.14675006 540.02543144 581 526 C581.85196592 524.94743361 582.70625585 523.89674533 583.5625 522.84765625 C598.96702738 503.84505165 612.45780013 482.5580953 622 460 C622.66 460 623.32 460 624 460 C626.24579848 464.03640879 628.48769565 468.0749503 630.72607422 472.11547852 C631.48738645 473.48846129 632.24974374 474.86086515 633.01318359 476.23266602 C634.11313649 478.20956963 635.2092596 480.18855499 636.3046875 482.16796875 C636.6443454 482.77650192 636.9840033 483.3850351 637.33395386 484.01200867 C639.15383741 487.3099573 640.59166012 490.47915029 642 494 C669.39 494 696.78 494 725 494 C725 545.48 725 596.96 725 650 C485.75 650 246.5 650 0 650 C0 435.5 0 221 0 0 Z " fill="#D1E7EF" transform="translate(0,0)"/>
<path d="M0 0 C3.61500968 -0.00441703 7.22978501 -0.01847646 10.84472656 -0.04101562 C30.43479471 -0.1606303 49.60607441 -0.18469642 68.96606445 3.24023438 C70.39160596 3.46810856 71.81753448 3.69357909 73.24389648 3.91625977 C83.36687745 5.56007302 92.59910442 9.19694228 101.96606445 13.24023438 C103.62508789 13.95179687 103.62508789 13.95179687 105.31762695 14.67773438 C128.0200186 25.22026981 143.34579386 45.39831573 152.1887207 68.42382812 C153.25587892 71.67399441 154.1462249 74.91912508 154.96606445 78.24023438 C155.4146582 80.00947266 155.4146582 80.00947266 155.87231445 81.81445312 C159.96675103 99.88843315 160.84647255 121.84525603 153.96606445 139.24023438 C153.73000488 139.87638672 153.49394531 140.51253906 153.25073242 141.16796875 C147.79288062 155.76446732 139.48566736 167.72233607 127.96606445 178.24023438 C128.83343189 184.49548425 129.71380912 190.74589764 130.73168945 196.97851562 C130.86341553 197.78893311 130.9951416 198.59935059 131.13085938 199.43432617 C131.38747549 201.00285082 131.64778455 202.57077787 131.91259766 204.13793945 C133.91986189 216.43723574 134.16630175 228.6859947 134.15356445 241.11523438 C134.15395721 241.93049591 134.15434998 242.74575745 134.15475464 243.58572388 C134.14778685 255.68521634 133.64852638 267.59338314 132.23608398 279.61865234 C129.74742942 303.78065301 146.17820736 323.55559043 157.96606445 344.24023438 C158.43560547 345.06620117 158.90514648 345.89216797 159.38891602 346.74316406 C165.86555134 358.10991671 165.86555134 358.10991671 173.6887207 368.57617188 C174.96606445 370.24023438 174.96606445 370.24023438 175.96606445 373.24023438 C176.90063477 373.27761719 177.83520508 373.315 178.7980957 373.35351562 C189.70094288 373.89919296 200.19748001 375.41907671 210.96606445 377.24023438 C210.96606445 383.51023437 210.96606445 389.78023438 210.96606445 396.24023438 C183.57606445 396.24023438 156.18606445 396.24023438 127.96606445 396.24023438 C122.68606445 386.67023438 117.40606445 377.10023438 111.96606445 367.24023438 C108.66043983 361.35269658 108.66043983 361.35269658 105.3449707 355.47070312 C100.4940174 346.8645865 95.7216152 338.21418785 90.92803955 329.57601929 C88.69670155 325.55538014 86.46291772 321.53610851 84.2277832 317.51757812 C78.44495105 307.11916798 72.67174306 296.71570523 66.93066406 286.29418945 C63.93864271 280.86294494 60.94048757 275.43509173 57.9418335 270.00750732 C56.96993223 268.24723953 55.99936605 266.48624118 55.02905273 264.72509766 C46.21023958 248.73718005 37.03134182 233.76341092 25.96606445 219.24023438 C16.06606445 218.74523437 16.06606445 218.74523437 5.96606445 218.24023438 C5.97130127 219.64934082 5.97653809 221.05844727 5.98193359 222.51025391 C6.03824475 239.46968659 6.02541068 256.4285971 5.97851562 273.38800049 C5.96954149 276.70224902 5.96275618 280.01649301 5.95751953 283.33074951 C5.94137082 293.03943896 5.90665632 302.74765368 5.83236599 312.45608902 C5.79945117 316.80129928 5.77476331 321.14617463 5.77078247 325.49151611 C5.76653951 329.62403538 5.73831152 333.75573937 5.69269562 337.8880024 C5.67985097 339.41159899 5.6752821 340.93529293 5.67989349 342.45893669 C5.70162824 351.72321099 4.69342175 359.09019779 -0.03393555 367.24023438 C-0.69393555 367.24023438 -1.35393555 367.24023438 -2.03393555 367.24023438 C-2.49799805 369.15835938 -2.49799805 369.15835938 -2.97143555 371.11523438 C-3.50998799 373.34125113 -4.00763554 375.18763437 -5.03393555 377.24023438 C1.23606445 377.90023438 7.50606445 378.56023437 13.96606445 379.24023438 C13.96606445 385.51023437 13.96606445 391.78023438 13.96606445 398.24023438 C-32.56393555 397.91023438 -79.09393555 397.58023437 -127.03393555 397.24023438 C-128.03890407 394.22532881 -128.13728857 392.19841746 -128.09643555 389.05273438 C-128.08741211 388.15167969 -128.07838867 387.250625 -128.0690918 386.32226562 C-128.03393555 384.24023438 -128.03393555 384.24023438 -126.03393555 380.24023438 C-120.65908279 379.38378093 -115.28391675 378.52933183 -109.90844727 377.67675781 C-108.07893206 377.38629669 -106.24950447 377.09528316 -104.42016602 376.80371094 C-101.794254 376.38527292 -99.1680357 375.96880736 -96.54174805 375.55273438 C-95.720867 375.4214917 -94.89998596 375.29024902 -94.05422974 375.1550293 C-88.26167896 374.24023438 -88.26167896 374.24023438 -86.03393555 374.24023438 C-85.27317692 364.40498363 -84.8907209 354.66313776 -84.91368103 344.79444885 C-84.91324356 343.4079443 -84.91236544 342.02143983 -84.91109186 340.6349358 C-84.90888139 336.8720911 -84.91282024 333.10927547 -84.91786993 329.34643447 C-84.92222442 325.27099547 -84.92072448 321.19555786 -84.91996765 317.12011719 C-84.91944556 310.07475464 -84.92255932 303.02940142 -84.92820549 295.98404121 C-84.93636336 285.79787373 -84.93894009 275.61171072 -84.94019348 265.42554032 C-84.94237729 248.89558878 -84.94901912 232.36564221 -84.95849609 215.83569336 C-84.96768762 199.78686549 -84.97475992 183.73803896 -84.97900391 167.68920898 C-84.97926663 166.69848031 -84.97952935 165.70775163 -84.97980004 164.68700088 C-84.98110516 159.71636468 -84.98236885 154.74572846 -84.98361194 149.77509224 C-84.99396364 108.59680284 -85.01156362 67.41851889 -85.03393555 26.24023438 C-86.1098999 26.17679337 -87.18586426 26.11335236 -88.29443359 26.04798889 C-89.73234586 25.96119936 -91.17025247 25.87431589 -92.6081543 25.78735352 C-93.314198 25.74597511 -94.0202417 25.70459671 -94.74768066 25.66196442 C-101.21326753 25.26763339 -107.61357579 24.53350937 -114.03393555 23.67773438 C-115.10643555 23.53916016 -116.17893555 23.40058594 -117.28393555 23.2578125 C-119.86791559 22.92327937 -122.45118467 22.58410514 -125.03393555 22.24023438 C-126.72137352 16.21367017 -126.24884301 10.31477167 -125.03393555 4.24023438 C-115.95360068 3.36573742 -106.90075703 2.98580532 -97.78393555 2.74023438 C-85.87013908 2.40512603 -85.87013908 2.40512603 -73.97143555 1.74023438 C-49.36348258 0.04276681 -24.65465156 0.02558892 0 0 Z " fill="#4D7AA4" transform="translate(514.033935546875,97.759765625)"/>
<path d="M0 0 C44.90562081 0 44.90562081 0 61.4375 2.5 C63.18651419 2.74330419 64.93586863 2.98417438 66.68554688 3.22265625 C70.7947547 3.78774836 74.89822863 4.38334025 79 5 C79.93782693 72.69926111 80.18906781 140.39272862 80.18518724 208.09789573 C80.18476804 219.07803744 80.1945711 230.05814612 80.2084411 241.0382782 C80.22282875 252.5233234 80.22952841 264.00834554 80.22884732 275.49340123 C80.22859475 281.86022843 80.23131891 288.2270168 80.24202538 294.59383583 C80.25172553 300.51045773 80.25177262 306.42700328 80.24450874 312.34362793 C80.24346914 314.49662069 80.24578833 316.64961834 80.2518692 318.80260277 C80.28245884 330.38377773 79.96586804 341.56597979 78 353 C75.00237387 353.67789251 72.00265342 354.34468447 69 355 C68.32759277 355.14727539 67.65518555 355.29455078 66.96240234 355.44628906 C56.15814813 357.69097767 45.48283339 358.19657721 34.47265625 358.1171875 C32.94708422 358.11139207 31.42151027 358.10608508 29.89593506 358.10119629 C25.34109732 358.08359682 20.78639063 358.05434807 16.23163223 358.02251434 C12.74015217 357.99818968 9.24866351 357.9755053 5.75717163 357.95294189 C-11.99290058 357.83653817 -29.74277793 357.69865183 -47.49264449 357.55461919 C-55.09180078 357.4930042 -62.69097013 357.43307472 -70.29014063 357.37324238 C-85.86010827 357.25061615 -101.43005936 357.12601009 -117 357 C-117.33 356.34 -117.66 355.68 -118 355 C-118.61746094 354.87625 -119.23492187 354.7525 -119.87109375 354.625 C-127.28458853 352.8195827 -131.69786187 349.39178781 -137 344 C-137.33 342.68 -137.66 341.36 -138 340 C-138.99 339.34 -139.98 338.68 -141 338 C-142.23823689 334.1712518 -142.13352525 330.36302543 -142.11352539 326.38574219 C-142.11367142 325.62437958 -142.11381744 324.86301697 -142.1139679 324.07858276 C-142.11327255 321.56798429 -142.10549787 319.05746048 -142.09765625 316.546875 C-142.09579073 314.80381308 -142.09436746 313.06075063 -142.09336853 311.31768799 C-142.08955394 306.73427884 -142.07973267 302.15090149 -142.06866455 297.56750488 C-142.0584277 292.88875763 -142.05386604 288.21000523 -142.04882812 283.53125 C-142.03810946 274.35415272 -142.02104572 265.177079 -142 256 C-130.82140168 249.1544663 -120.58152068 246.96582632 -107.71484375 246.98828125 C-106.45663818 246.98997314 -105.19843262 246.99166504 -103.90209961 246.9934082 C-102.94440674 246.9955835 -101.98671387 246.99775879 -101 247 C-101.00222061 246.08581802 -101.00444122 245.17163605 -101.00672913 244.22975159 C-101.03484258 232.00734369 -101.05219552 219.78493573 -101.0625 207.5625 C-101.06335602 206.55464573 -101.06421204 205.54679146 -101.06509399 204.50839615 C-101.09316436 166.89930405 -100.85379369 129.29481298 -100.5 91.6875 C-100.48804218 90.41587635 -100.47608437 89.1442527 -100.46376419 87.834095 C-100.02161147 41.02161147 -100.02161147 41.02161147 -99 40 C-77.55 40 -56.1 40 -34 40 C-32 42 -32 42 -31.32910156 44.69946289 C-30.48765875 48.08252707 -29.64506716 51.4653012 -28.80175781 54.84790039 C-28.44063768 56.29733435 -28.07994376 57.74687458 -27.71972656 59.1965332 C-23.81409225 75.83779913 -23.81409225 75.83779913 -18.88378906 92.17602539 C-18 95 -18 95 -18 99 C-12.06 99 -6.12 99 0 99 C0 66.33 0 33.66 0 0 Z " fill="#F0F6F9" transform="translate(350,119)"/>
<path d="M0 0 C6.6 0 13.2 0 20 0 C32.86361332 15.48397899 42.33170705 32.53033179 51.89892578 50.140625 C54.92861132 55.71307294 57.99611739 61.26461913 61.06344604 66.81640625 C62.06517579 68.62984401 63.06602803 70.4437635 64.06665039 72.2578125 C68.55184018 80.38767695 73.0526916 88.50876101 77.5625 96.625 C78.46971802 98.25924927 78.46971802 98.25924927 79.39526367 99.92651367 C82.30859522 105.17144062 85.22864591 110.41239545 88.16716003 115.64324951 C89.56833822 118.13857108 90.96607287 120.63581316 92.36349487 123.13323975 C93.03162442 124.32500789 93.70145425 125.51582461 94.37307739 126.70562744 C95.3024161 128.35215888 96.22556712 130.00217816 97.1484375 131.65234375 C97.94000244 133.05987915 97.94000244 133.05987915 98.74755859 134.49584961 C99.85043705 136.70096156 100.53481559 138.59184126 101 141 C87.94508685 169.53687241 71.90343159 195.08938298 50.5546875 218.19921875 C48.55077586 220.39616775 46.6050181 222.62024077 44.66796875 224.875 C41.13244216 228.92465506 37.37006076 232.65078078 33.4375 236.3125 C32.39323853 237.2857019 32.39323853 237.2857019 31.32788086 238.27856445 C24.8415019 244.25482019 18.09908448 249.77096383 11 255 C10.33355469 255.49097168 9.66710937 255.98194336 8.98046875 256.48779297 C-0.68975473 263.55880749 -10.56233885 270.11948247 -21 276 C-21.6815918 276.38865234 -22.36318359 276.77730469 -23.06542969 277.17773438 C-76.41671055 307.33808523 -140.26216823 319.52119485 -201 311 C-201.76618652 310.89284668 -202.53237305 310.78569336 -203.32177734 310.67529297 C-208.57394198 309.91422207 -213.7895571 309.00613839 -219 308 C-219.7115625 307.86368164 -220.423125 307.72736328 -221.15625 307.58691406 C-271.42714042 297.72853745 -318.58989705 273.33149519 -356.1640625 238.58984375 C-358.37369372 236.57195739 -360.60993061 234.61324779 -362.87890625 232.6640625 C-366.92741208 229.12996291 -370.65181251 225.36853767 -374.3125 221.4375 C-374.95985107 220.74350098 -375.60720215 220.04950195 -376.27416992 219.33447266 C-382.25268676 212.84992788 -387.74973311 206.08235028 -393 199 C-393.46341797 198.37754395 -393.92683594 197.75508789 -394.40429688 197.11376953 C-395.80042901 195.22879963 -397.18451458 193.33576822 -398.5625 191.4375 C-398.98055908 190.86563965 -399.39861816 190.2937793 -399.8293457 189.70458984 C-402.06656387 186.56941526 -403.63951707 183.58886668 -405 180 C-388.86524478 179.97653005 -372.73049519 179.95895213 -356.59572697 179.94818783 C-349.10230497 179.9430546 -341.60889365 179.93606929 -334.11547852 179.92456055 C-327.57620452 179.9145221 -321.03693825 179.90812501 -314.49765676 179.90591151 C-311.0424605 179.90461979 -307.58728635 179.90163337 -304.13209724 179.89426994 C-290.05261645 179.86760611 -276.04205933 179.87660659 -262 181 C-262 178.03 -262 175.06 -262 172 C-250.60417814 171.96921124 -239.20835757 171.94895676 -227.8125 171.9375 C-226.96707516 171.93664398 -226.12165031 171.93578796 -225.25060654 171.93490601 C-194.82202795 171.90770424 -164.42022759 172.24015109 -134 173 C-133.67 174.98 -133.34 176.96 -133 179 C-132.31585242 178.99907821 -131.63170485 178.99815641 -130.92682552 178.99720669 C-114.26735049 178.9751065 -97.6078801 178.95856651 -80.94839382 178.94818783 C-72.89194143 178.94303516 -64.83549884 178.93601208 -56.77905273 178.92456055 C-49.75571357 178.91458226 -42.73238151 178.90813908 -35.70903546 178.90591151 C-31.99146939 178.90460974 -28.27392361 178.90155772 -24.55636406 178.89426994 C-20.40271994 178.88619359 -16.24911094 178.88601089 -12.09545898 178.88647461 C-10.86762695 178.88287933 -9.63979492 178.87928406 -8.37475586 178.87557983 C-6.66907692 178.87764183 -6.66907692 178.87764183 -4.92893982 178.87974548 C-3.94723029 178.87882369 -2.96552076 178.8779019 -1.95406246 178.87695217 C1.38211626 179.01591658 4.6944877 179.52778396 8 180 C8 173.73 8 167.46 8 161 C5.999375 161.04125 3.99875 161.0825 1.9375 161.125 C-3.15793288 161.1361254 -7.24005753 160.77114138 -12 159 C-8 149 -8 149 -6 148 C-2.0122444 140.03820067 -1.39266516 133.01214111 -1.36230469 124.19677734 C-1.34366853 122.83568999 -1.32332569 121.47462512 -1.30142212 120.11358643 C-1.24721487 116.44905344 -1.21664225 112.78467245 -1.19056606 109.11984587 C-1.15913059 105.27866569 -1.10560633 101.43779208 -1.05450439 97.59683228 C-0.96123217 90.33700815 -0.88759857 83.07712535 -0.82115865 75.81701148 C-0.74449992 67.54588824 -0.64573717 59.27507409 -0.54519033 51.00421214 C-0.3390026 34.00302854 -0.16112092 17.00166834 0 0 Z " fill="#FDFDFD" transform="translate(520,316)"/>
<path d="M0 0 C0.02288056 41.93791764 0.04050546 83.87583457 0.05106533 125.81375722 C0.05231606 130.76304519 0.05361038 135.71233314 0.05493164 140.66162109 C0.05519395 141.64695011 0.05545626 142.63227912 0.05572652 143.64746659 C0.0600798 159.60926892 0.06796548 175.57106766 0.0771528 191.53286786 C0.08649883 207.90677629 0.09205763 224.28068284 0.09408849 240.65459383 C0.09546174 250.76106587 0.09980166 260.86752776 0.10791647 270.97399668 C0.11319563 277.90100654 0.11480162 284.82801112 0.11350138 291.75502284 C0.11285984 295.75364927 0.11385483 299.75225791 0.11920547 303.7508812 C0.12406791 307.41134113 0.12431989 311.07177131 0.12089889 314.73223262 C0.12027563 316.68428497 0.12459189 318.63633698 0.12908131 320.58838427 C0.12709026 321.7498511 0.12509921 322.91131793 0.12304783 324.10798073 C0.12342755 325.10816408 0.12380727 326.10834743 0.1241985 327.13883936 C-0.00696245 330.16039395 -0.44433051 333.0295465 -1 336 C-10.15974106 337.42378402 -19.32560604 338.79893663 -28.5 340.125 C-30.35238281 340.39763672 -30.35238281 340.39763672 -32.2421875 340.67578125 C-34.02496094 340.93294922 -34.02496094 340.93294922 -35.84375 341.1953125 C-37.43993164 341.42758545 -37.43993164 341.42758545 -39.06835938 341.66455078 C-41.74628987 341.97096954 -44.30821847 342.06400127 -47 342 C-47.33 342.99 -47.66 343.98 -48 345 C-58.22796109 329.28257479 -64.91487179 311.6574076 -71 294 C-71.32242676 293.06655762 -71.64485352 292.13311523 -71.97705078 291.17138672 C-76.38047763 278.10396983 -79.1171833 264.88607485 -81.375 251.3125 C-81.5026474 250.54732056 -81.6302948 249.78214111 -81.7618103 248.99377441 C-88.24123496 209.63146804 -86.46870026 168.53083179 -76 130 C-75.75411133 129.08524902 -75.50822266 128.17049805 -75.25488281 127.22802734 C-63.2869565 83.53833899 -40.68018539 45.20808217 -11.25 11.125 C-10.6945752 10.48175781 -10.13915039 9.83851563 -9.56689453 9.17578125 C-1.58637952 0 -1.58637952 0 0 0 Z " fill="#FEFEFE" transform="translate(154,137)"/>
<path d="M0 0 C-1 5 -1 5 -3.08984375 7.01953125 C-9.54514293 13.35086035 -15.39916074 19.88721942 -21 27 C-21.85944709 28.05829174 -22.72017209 29.11554669 -23.58203125 30.171875 C-71.3598119 89.17980789 -94.03344238 166.64723783 -86.3125 242.1875 C-85.95180245 245.13963356 -85.49174406 248.06705619 -85 251 C-84.83338867 252.02061523 -84.66677734 253.04123047 -84.49511719 254.09277344 C-82.13430473 268.28618997 -79.40339378 282.29061346 -75 296 C-74.72317383 296.8647998 -74.44634766 297.72959961 -74.16113281 298.62060547 C-68.0613911 317.40451278 -60.94129553 335.76623332 -50.78173828 352.74389648 C-47.87679422 357.76716792 -46.65210035 362.21094976 -47 368 C-45.35 368 -43.7 368 -42 368 C-41.52691406 368.72703125 -41.05382812 369.4540625 -40.56640625 370.203125 C-32.50032784 382.46733778 -23.63054956 393.93151845 -14 405 C-13.24847656 405.86496094 -12.49695313 406.72992187 -11.72265625 407.62109375 C-2.54973872 417.98831519 7.10387977 427.44824122 18 436 C19.05714491 436.8579534 20.11308852 437.71738864 21.16796875 438.578125 C56.60391264 467.27694146 100.02988561 488.5378817 145 497 C145.80300537 497.15629883 146.60601074 497.31259766 147.43334961 497.47363281 C186.50023457 504.88948094 226.99658827 504.09351451 265.7578125 495.48974609 C267.84448565 495.03396796 269.93492201 494.61562878 272.03125 494.20703125 C314.52786146 485.54710672 354.69930279 463.28754274 388 436 C388.56396484 435.54044922 389.12792969 435.08089844 389.70898438 434.60742188 C403.40948426 423.37519905 416.14675006 411.02543144 427 397 C427.85196592 395.94743361 428.70625585 394.89674533 429.5625 393.84765625 C444.96702738 374.84505165 458.45780013 353.5580953 468 331 C468.66 331 469.32 331 470 331 C478 345 478 345 477 351 C476.03540039 353.27905273 476.03540039 353.27905273 474.84765625 355.43359375 C474.40599121 356.23990234 473.96432617 357.04621094 473.50927734 357.87695312 C472.79312256 359.14442383 472.79312256 359.14442383 472.0625 360.4375 C471.32314209 361.76104492 471.32314209 361.76104492 470.56884766 363.11132812 C463.61742734 375.3992148 455.65120947 386.84780451 447 398 C446.33226562 398.86238281 445.66453125 399.72476562 444.9765625 400.61328125 C440.89219622 405.80349373 436.60049805 410.75529906 432.1484375 415.6328125 C430.24848159 417.72621846 428.39998279 419.85195674 426.5625 422 C419.93047318 429.5991974 412.62210813 436.41640974 405 443 C404.390354 443.53230225 403.78070801 444.06460449 403.15258789 444.61303711 C386.34659842 459.20514539 367.73197358 471.7041511 348 482 C347.37818848 482.32871094 346.75637695 482.65742187 346.11572266 482.99609375 C341.46260479 485.44347424 336.75618192 487.75990892 332 490 C331.25782227 490.35030273 330.51564453 490.70060547 329.75097656 491.06152344 C271.18917039 518.2990037 201.08068334 526.78154793 138.03955078 511.48974609 C136.14595737 511.03504794 134.24310982 510.61937171 132.33984375 510.20703125 C70.36971065 496.08977098 11.0041874 460.82180817 -30 412 C-30.44972168 411.46938965 -30.89944336 410.9387793 -31.36279297 410.39208984 C-55.61449487 381.66532479 -73.92957554 349.20222839 -87 314 C-87.32838867 313.13793945 -87.65677734 312.27587891 -87.99511719 311.38769531 C-92.27449348 300.0609867 -95.19779662 288.5046309 -97.75 276.6875 C-97.96467422 275.70970581 -97.96467422 275.70970581 -98.1836853 274.7121582 C-102.598834 254.3795991 -104.51158215 234.08579621 -104.39111328 213.29101562 C-104.37500431 210.00088079 -104.39109596 206.71197365 -104.41015625 203.421875 C-104.42916516 184.75669053 -102.88671248 166.20036422 -98.5625 148 C-98.3449707 147.05108887 -98.12744141 146.10217773 -97.90332031 145.12451172 C-97.47186793 143.25456796 -97.03516751 141.38582436 -96.59228516 139.51855469 C-96.07310317 137.31085419 -95.58290042 135.09981354 -95.10546875 132.8828125 C-90.27172238 111.6496435 -81.52217827 91.50085048 -72 72 C-71.61875977 71.21689453 -71.23751953 70.43378906 -70.84472656 69.62695312 C-62.67808452 53.05886892 -52.42914303 37.49443043 -41 23 C-40.34773438 22.16726562 -39.69546875 21.33453125 -39.0234375 20.4765625 C-37.03623464 17.96682821 -35.02468694 15.47958898 -33 13 C-32.36215576 12.21665283 -32.36215576 12.21665283 -31.71142578 11.41748047 C-30.35384821 9.75368239 -28.99044065 8.09484885 -27.625 6.4375 C-26.37589844 4.91962891 -26.37589844 4.91962891 -25.1015625 3.37109375 C-18.2805398 -4.32474412 -13.76880051 0 0 0 Z " fill="#FDFEFE" transform="translate(154,129)"/>
<path d="M0 0 C33.66 0 67.32 0 102 0 C108 21 108 21 110 31 C88.22 31 66.44 31 44 31 C43.34 98.98 42.68 166.96 42 237 C30.615 237.99 30.615 237.99 19 239 C10.78456632 241.30827169 10.78456632 241.30827169 4 246 C3.01 246 2.02 246 1 246 C1 271.08 1 296.16 1 322 C0.67 322 0.34 322 0 322 C0 215.74 0 109.48 0 0 Z " fill="#9EE1E9" transform="translate(207,129)"/>
<path d="M0 0 C2.01909606 -0.00218202 4.03764149 -0.02033849 6.05664062 -0.03930664 C7.33539062 -0.04124023 8.61414063 -0.04317383 9.93164062 -0.04516602 C11.10130371 -0.0492749 12.2709668 -0.05338379 13.47607422 -0.05761719 C19.12873284 0.37390002 22.27834167 2.43591191 26.34570312 6.24780273 C27.65667969 7.4659668 27.65667969 7.4659668 28.99414062 8.70874023 C29.87328125 9.52600586 30.75242187 10.34327148 31.65820312 11.18530273 C33.26203594 12.58151965 34.86620039 13.97735573 36.47070312 15.37280273 C47.40404328 25.24365529 56.81872924 36.43965684 65.65820312 48.18530273 C66.12500488 48.80050781 66.59180664 49.41571289 67.07275391 50.04956055 C73.45654592 58.48443122 79.29473632 67.05839493 84.65820312 76.18530273 C84.99400391 76.75539063 85.32980469 77.32547852 85.67578125 77.9128418 C93.25585805 90.79321899 93.24515621 103.45735764 89.56445312 117.96704102 C84.29053749 136.8637639 74.37091141 155.27148785 57.03320312 165.43530273 C46.98279416 170.99657421 36.42950322 174.10347617 25.15820312 175.99780273 C24.43608643 176.12195557 23.71396973 176.2461084 22.9699707 176.37402344 C17.92030079 177.12716628 12.93840045 177.24584232 7.83984375 177.21533203 C7.14739563 177.21316429 6.45494751 177.21099655 5.74151611 177.20876312 C4.04706972 177.20314481 2.35263371 177.19452899 0.65820312 177.18530273 C0.65489298 176.41869544 0.65158283 175.65208815 0.64817238 174.86225033 C0.56691449 156.19985961 0.47481284 137.53755117 0.37067604 118.8752737 C0.32057692 109.85029733 0.27413368 100.82532991 0.23632812 91.80029297 C0.20336343 83.93310131 0.16350748 76.06597973 0.11541307 68.19886547 C0.09019259 64.03418067 0.06839819 59.86954209 0.05485916 55.70480156 C0.04199836 51.78220983 0.01990085 47.859777 -0.00918007 43.93727303 C-0.01822449 42.50021715 -0.02393874 41.0631357 -0.02601051 39.62605286 C-0.02935513 37.65788692 -0.0460479 35.68975738 -0.06332397 33.72166443 C-0.06885473 32.6219654 -0.07438549 31.52226637 -0.08008385 30.38924313 C-1.00854558 19.02283899 -7.75869116 9.32326984 -15.34179688 1.18530273 C-10.37362014 -0.47075618 -5.20244507 -0.00063075 0 0 Z " fill="#FDFDFE" transform="translate(520.341796875,117.814697265625)"/>
<path d="M0 0 C1.91610322 0.29484139 3.83532939 0.56950834 5.75585938 0.83398438 C33.25405819 4.63023613 59.19388514 11.97654669 84.55761719 23.39355469 C85.45834961 23.79719238 86.35908203 24.20083008 87.28710938 24.61669922 C98.83651896 29.8402657 109.86052234 35.59079391 120.55761719 42.39355469 C120.55761719 42.72355469 120.55761719 43.05355469 120.55761719 43.39355469 C119.42700867 43.427808 119.42700867 43.427808 118.27355957 43.4627533 C111.09698336 43.68063534 103.92048977 43.90101175 96.74407196 44.12404537 C93.05647124 44.23856699 89.36884791 44.3521939 85.68115234 44.46362305 C82.1084031 44.57161443 78.53574029 44.68215564 74.96311951 44.79431343 C72.96736766 44.85634696 70.97153857 44.91587953 68.97570801 44.97532654 C61.7208077 45.20542685 54.4884774 45.56490856 47.24671936 46.0412426 C41.69407278 46.40089203 36.15134221 46.60161163 30.58886719 46.70996094 C29.65707642 46.73074203 28.72528564 46.75152313 27.76525879 46.77293396 C24.86276741 46.83699006 21.96020657 46.8966251 19.05761719 46.95605469 C17.05891282 46.9993778 15.06021482 47.04299575 13.06152344 47.08691406 C8.2269545 47.19251737 3.39231766 47.29416337 -1.44238281 47.39355469 C-1.44238281 49.37355469 -1.44238281 51.35355469 -1.44238281 53.39355469 C-14.31238281 53.39355469 -27.18238281 53.39355469 -40.44238281 53.39355469 C-40.44238281 51.74355469 -40.44238281 50.09355469 -40.44238281 48.39355469 C-41.65063721 48.42384766 -42.8588916 48.45414063 -44.10375977 48.48535156 C-79.572139 49.34550975 -115.02749812 49.48300039 -150.50488281 49.45605469 C-151.63991367 49.45519867 -152.77494453 49.45434265 -153.94437027 49.45346069 C-168.11038994 49.44199053 -182.27638702 49.42180021 -196.44238281 49.39355469 C-191.90904436 44.68086629 -186.03607474 41.69806948 -180.44238281 38.39355469 C-179.82637207 38.0292334 -179.21036133 37.66491211 -178.57568359 37.28955078 C-147.53276833 19.07028718 -113.97336821 7.09809986 -78.44238281 1.39355469 C-77.07847412 1.16708252 -77.07847412 1.16708252 -75.68701172 0.93603516 C-51.29581132 -2.98058407 -24.48095712 -3.7982189 0 0 Z " fill="#FDFDFE" transform="translate(390.4423828125,54.6064453125)"/>
<path d="M0 0 C0.89283691 0.00060425 1.78567383 0.0012085 2.70556641 0.00183105 C15.41384904 0.02521283 27.91743726 0.25750016 40.5 2.1875 C41.43086426 2.32172363 42.36172852 2.45594727 43.32080078 2.59423828 C95.58342229 10.20726413 147.36334394 30.7068327 188.5 64.1875 C188.5 64.5175 188.5 64.8475 188.5 65.1875 C158.5 65.1875 158.5 65.1875 147.5625 58.6875 C131.01256207 48.99595439 114.37214327 41.75453255 96.34936523 35.22290039 C94.44219191 34.52987305 92.53804621 33.82845918 90.63696289 33.11889648 C76.52422728 27.87730325 62.00450853 24.95314457 47.1875 22.4375 C45.96119873 22.22681885 44.73489746 22.0161377 43.47143555 21.79907227 C28.94802488 19.42597866 14.43330843 18.95047972 -0.25 18.9375 C-1.05104156 18.93649292 -1.85208313 18.93548584 -2.67739868 18.93444824 C-22.86174375 18.95145801 -42.71251414 20.6442778 -62.32226562 25.64160156 C-64.61976037 26.21752065 -66.92483297 26.74803074 -69.234375 27.2734375 C-105.0546087 35.57606994 -137.27937106 51.56072151 -167.5 72.1875 C-177.07 72.1875 -186.64 72.1875 -196.5 72.1875 C-181.03692433 56.72442433 -161.76333549 45.30845284 -142.5 35.1875 C-141.86384766 34.84557617 -141.22769531 34.50365234 -140.57226562 34.15136719 C-97.39487515 10.98356154 -48.78441218 -0.06083406 0 0 Z " fill="#FDFEFE" transform="translate(356.5,31.8125)"/>
<path d="M0 0 C8.95786208 9.20795467 15.13122684 18.183923 15.12025452 31.29585266 C15.12162918 32.56484909 15.12300385 33.83384552 15.12442017 35.14129639 C15.12088148 36.53991723 15.11724668 37.93853783 15.11352539 39.3371582 C15.1132432 40.81570941 15.11340188 42.29426076 15.1139679 43.77281189 C15.11425462 47.78066475 15.10837804 51.78848765 15.10139394 55.79633355 C15.09513965 59.98703881 15.09455496 64.17774477 15.09336853 68.36845398 C15.09026134 76.30147076 15.08205619 84.23447375 15.07201904 92.16748446 C15.06083891 101.20007479 15.05534266 110.23266577 15.05032361 119.26526129 C15.03987308 137.84351535 15.02228548 156.42175656 15 175 C1.95415744 175.11145896 -10.99069108 175.05736038 -24 174 C-24.02349277 155.86545765 -24.04105884 137.73091932 -24.05181217 119.59636497 C-24.05694066 111.17377586 -24.06391659 102.75119627 -24.07543945 94.32861328 C-24.08549275 86.97661762 -24.0918784 79.62462886 -24.09408849 72.27262652 C-24.09537777 68.38970306 -24.09834782 64.50679934 -24.10573006 60.62388229 C-24.18103723 19.31687846 -24.18103723 19.31687846 -22 1 C-19.08418447 0.63702296 -16.16774334 0.28431765 -13.25 -0.0625 C-12.0125 -0.2181543 -12.0125 -0.2181543 -10.75 -0.37695312 C-9.95078125 -0.47041016 -9.1515625 -0.56386719 -8.328125 -0.66015625 C-7.5949707 -0.74918213 -6.86181641 -0.83820801 -6.10644531 -0.92993164 C-3.87729995 -1.00408147 -2.12666985 -0.64094299 0 0 Z " fill="#92CBD9" transform="translate(506,120)"/>
<path d="M0 0 C9.28528134 0 17.09692093 0.17372737 26 2 C26.04539333 28.51110333 25.99366544 55.02097524 25.76428032 81.53123093 C25.71898106 86.78138716 25.67970615 92.03144858 25.65356445 97.28173828 C25.62750621 102.48920228 25.58719525 107.69637619 25.53681374 112.90365982 C25.52029243 114.8547014 25.50868741 116.80579181 25.50238609 118.75689316 C25.41494632 143.20295183 25.41494632 143.20295183 17.875 151.09570312 C17.1325 151.82176758 17.1325 151.82176758 16.375 152.5625 C15.87226563 153.08134766 15.36953125 153.60019531 14.8515625 154.13476562 C13.58344896 155.4386727 12.29348699 156.7212596 11 158 C10.67 158.33 10.34 158.66 10 159 C6.7 159 3.4 159 0 159 C0 106.53 0 54.06 0 0 Z " fill="#8DC9D8" transform="translate(482,314)"/>
<path d="M0 0 C0.33 0 0.66 0 1 0 C1 79.53 1 159.06 1 241 C0.67 241 0.34 241 0 241 C0 206.35 0 171.7 0 136 C-48.84 136 -97.68 136 -148 136 C-148.33 135.67 -148.66 135.34 -149 135 C-149 131.7 -149 128.4 -149 125 C-131.63993688 125.10758859 -114.27991654 125.22040998 -96.9199276 125.33933926 C-88.85809055 125.39444908 -80.79624909 125.44789259 -72.734375 125.49731445 C-65.70178734 125.5404308 -58.66922934 125.58677437 -51.63668787 125.63687855 C-47.91835863 125.66326057 -44.20003442 125.68810448 -40.48167038 125.70907402 C-36.3150474 125.7326323 -32.14850579 125.76340072 -27.98193359 125.79467773 C-26.76991776 125.8004332 -25.55790192 125.80618866 -24.30915833 125.81211853 C-16.13237045 125.88140881 -8.19404701 126.41471093 0 127 C0 109.84 0 92.68 0 75 C-4.95 75.495 -4.95 75.495 -10 76 C-11.92924032 76.08070184 -13.86033382 76.13036629 -15.79125977 76.1328125 C-17.40568214 76.13583374 -17.40568214 76.13583374 -19.05271912 76.13891602 C-20.23286087 76.13432373 -21.41300262 76.12973145 -22.62890625 76.125 C-24.58565025 76.12101196 -24.58565025 76.12101196 -26.58192444 76.11694336 C-48.78767121 76.03620029 -70.99241345 75.50726413 -93.19329834 75.07287598 C-99.50317324 74.95006253 -105.81311274 74.83066202 -112.12304688 74.7109375 C-124.41542851 74.4772175 -136.70773629 74.23983682 -149 74 C-149 70.7 -149 67.4 -149 64 C-114.03762558 63.83915675 -79.0850214 64.1162798 -44.125 64.5 C-43.03523235 64.51195782 -41.94546471 64.52391563 -40.8226738 64.53623581 C-27.21505732 64.68599662 -13.60752997 64.84236209 0 65 C0 43.55 0 22.1 0 0 Z " fill="#C7D6E3" transform="translate(429,216)"/>
<path d="M0 0 C27.26215505 -0.50114256 51.99510076 1.15588623 79 5 C79 16.88 79 28.76 79 41 C52.93 41 26.86 41 0 41 C0 27.47 0 13.94 0 0 Z " fill="#AAE9EF" transform="translate(350,119)"/>
<path d="M0 0 C0.66 0.33 1.32 0.66 2 1 C9.19316846 35.23948186 11.88860019 72.62824204 4 107 C1.15626812 103.58526573 -1.2159427 100.13683693 -3.44140625 96.29296875 C-4.09826416 95.16439453 -4.75512207 94.03582031 -5.43188477 92.87304688 C-5.77841095 92.27355225 -6.12493713 91.67405762 -6.48196411 91.05639648 C-8.3544278 87.81778049 -10.24089778 84.58732274 -12.125 81.35546875 C-12.51913589 80.67853973 -12.91327179 80.00161072 -13.3193512 79.3041687 C-17.45720183 72.20215138 -21.64209331 65.12828366 -25.83883667 58.0609436 C-27.0278107 56.05842512 -28.21522635 54.05498853 -29.40258789 52.05151367 C-34.18973019 43.98480413 -39.05809228 35.97293325 -44 28 C-44 27.01 -44 26.02 -44 25 C-43.351521 24.71914551 -42.70304199 24.43829102 -42.03491211 24.14892578 C-26.77450811 17.48812085 -12.94352164 10.54212616 0 0 Z " fill="#FDFDFD" transform="translate(637,280)"/>
<path d="M0 0 C0.66 0.33 1.32 0.66 2 1 C7.66147711 26.68664244 10.26845133 51.42238369 10.375 77.6875 C10.38294586 78.71141846 10.39089172 79.73533691 10.39907837 80.7902832 C10.69589867 130.60820267 10.69589867 130.60820267 2 148 C1.34 148 0.68 148 0 148 C-9.23788217 131.37181209 -10.35377235 127.48733668 -8.48828125 111.47265625 C-5.01842358 80.63187161 -5.32370787 47.99622436 -12.546875 17.72265625 C-12.99162289 15.05033488 -12.89997886 13.52358938 -12 11 C-10.75323147 9.72599623 -9.5024352 8.45593346 -8.25 7.1875 C-7.55390625 6.47980469 -6.8578125 5.77210938 -6.140625 5.04296875 C-4.18571355 3.17724121 -2.19661447 1.56830358 0 0 Z " fill="#FDFEFE" transform="translate(654,264)"/>
<path d="M0 0 C4.95 0.33 9.9 0.66 15 1 C15.06831801 19.38279864 15.06328209 37.76497244 15.01245117 56.14776611 C15.00347703 59.46201464 14.99669173 62.77625863 14.99145508 66.09051514 C14.97530637 75.79920459 14.94059186 85.50741931 14.86630154 95.21585464 C14.83338672 99.56106491 14.80869885 103.90594026 14.80471802 108.25128174 C14.80047506 112.383801 14.77224707 116.515505 14.72663116 120.64776802 C14.71378652 122.17136462 14.70921764 123.69505855 14.71382904 125.21870232 C14.73556379 134.48297661 13.72735729 141.84996342 9 150 C8.34 150 7.68 150 7 150 C6.690625 151.258125 6.38125 152.51625 6.0625 153.8125 C5.46021952 156.26177394 4.79911359 158.60265923 4 161 C-4.58 160.34 -13.16 159.68 -22 159 C-22 158.67 -22 158.34 -22 158 C-19.03 157.67 -16.06 157.34 -13 157 C-11.72599623 155.75323147 -10.45593346 154.5024352 -9.1875 153.25 C-8.47980469 152.55390625 -7.77210938 151.8578125 -7.04296875 151.140625 C2.70375529 140.92799637 1.45485405 128.09692767 1.4765625 114.8671875 C1.49092711 112.8697915 1.50669353 110.87240515 1.52377319 108.87503052 C1.56555042 103.60672994 1.59054183 98.33848878 1.61126709 93.07006836 C1.64692039 84.77505165 1.70870069 76.48015802 1.76766205 68.18527985 C1.78190614 66.14316492 1.79550381 64.10104539 1.80844879 62.05892181 C1.93868405 41.69823204 2.39677233 21.3516963 3 1 C2.01 0.67 1.02 0.34 0 0 Z " fill="#8098B4" transform="translate(505,315)"/>
<path d="M0 0 C1.98 0.99 1.98 0.99 4 2 C3.34 2.33 2.68 2.66 2 3 C1.82911865 3.5583252 1.6582373 4.11665039 1.48217773 4.69189453 C-0.21918769 10.04484723 -2.26774655 14.93869016 -4.9375 19.875 C-5.32446045 20.59550537 -5.7114209 21.31601074 -6.11010742 22.05834961 C-16.95880914 41.92736812 -30.12556418 59.98129802 -45 77 C-45.73605469 77.84820313 -46.47210937 78.69640625 -47.23046875 79.5703125 C-56.7064355 90.30628941 -66.749751 100.13570985 -78 109 C-79.10764439 109.91795401 -80.21299738 110.83867784 -81.31640625 111.76171875 C-119.93085914 143.81569552 -167.77958743 163.76496287 -217.0625 171.75 C-217.72362793 171.85718353 -218.38475586 171.96436707 -219.06591797 172.07479858 C-233.06688808 174.32050435 -246.71340275 175.23805877 -260.875 175.25 C-261.7064856 175.25100708 -262.53797119 175.25201416 -263.39465332 175.25305176 C-284.53248548 175.23586077 -305.46874202 173.78290948 -326.00976562 168.49414062 C-327.98347571 168.00410269 -329.96079441 167.57899487 -331.953125 167.171875 C-374.67272022 158.26827765 -416.01518581 136.35017662 -449 108 C-450.06788536 107.11452683 -451.13696876 106.2304972 -452.20703125 105.34765625 C-465.33262808 94.42985977 -477.55028351 82.52541001 -488 69 C-488.88751548 67.8891785 -489.77694791 66.77988673 -490.66796875 65.671875 C-508 44.02334549 -508 44.02334549 -508 40 C-504 41 -504 41 -503.04125977 42.38598633 C-494.71536573 54.38918788 -486.09900927 65.74289502 -476.234375 76.54296875 C-474.76874924 78.15464463 -473.32006451 79.78192582 -471.890625 81.42578125 C-461.77690091 92.99750571 -450.23816358 102.76302991 -438 112 C-437.38334473 112.46825195 -436.76668945 112.93650391 -436.13134766 113.41894531 C-427.70835177 119.7932218 -419.13460839 125.67236461 -410 131 C-409.4013916 131.35271973 -408.8027832 131.70543945 -408.18603516 132.06884766 C-363.99541363 158.01552961 -314.6298356 171.27860886 -263.4375 171.1875 C-262.32391617 171.18559662 -262.32391617 171.18559662 -261.18783569 171.18365479 C-232.407629 171.09046636 -203.33048757 167.40594702 -176 158 C-175.19433594 157.72994141 -174.38867188 157.45988281 -173.55859375 157.18164062 C-145.83482206 147.82331829 -119.71215822 135.16603616 -96 118 C-95.32694824 117.51772949 -94.65389648 117.03545898 -93.96044922 116.53857422 C-84.89090639 110.01667995 -76.51642345 103.07327379 -68.44335938 95.35791016 C-66.30536207 93.34648576 -64.08652701 91.42987027 -61.875 89.5 C-51.72526919 80.36688197 -43.21809809 69.85725516 -35 59 C-34.53029785 58.38189453 -34.0605957 57.76378906 -33.57666016 57.12695312 C-27.20435336 48.70586171 -21.32365909 40.13383259 -16 31 C-15.45496826 30.07018311 -15.45496826 30.07018311 -14.89892578 29.12158203 C-9.3710317 19.6522641 -4.47261366 10.00945051 0 0 Z " fill="#8196B2" transform="translate(620,457)"/>
<path d="M0 0 C2.82131731 0.89794382 5.87426423 1.87426423 8 4 C8 6.97 8 9.94 8 13 C8.66 13 9.32 13 10 13 C10 15.31 10 17.62 10 20 C9.01 20.66 8.02 21.32 7 22 C6.67 23.98 6.34 25.96 6 28 C9.10846523 33.04849721 9.10846523 33.04849721 18 34 C20.28992213 36.28992213 20.52684073 37.57036117 21.5 40.625 C21.7784375 41.48351562 22.056875 42.34203125 22.34375 43.2265625 C23 46 23 46 23 52 C6.17 52 -10.66 52 -28 52 C-28.66 51.34 -29.32 50.68 -30 50 C-30 42.04972454 -29.20858513 39.31287769 -25 33 C-23.25307205 32.32532438 -21.50231475 31.66055844 -19.75 31 C-18.28820312 30.443125 -18.28820312 30.443125 -16.796875 29.875 C-14 29 -14 29 -10 29 C-10.66 25.7 -11.32 22.4 -12 19 C-12.66 18.67 -13.32 18.34 -14 18 C-13.67 13.38 -13.34 8.76 -13 4 C-6.53333333 -0.31111111 -6.53333333 -0.31111111 0 0 Z " fill="#8CB8D3" transform="translate(301,181)"/>
<path d="M0 0 C34.96237442 -0.16084325 69.9149786 0.1162798 104.875 0.5 C106.50965147 0.51793673 106.50965147 0.51793673 108.1773262 0.53623581 C121.78494015 0.68599659 135.39249433 0.8407146 149 1 C149 4.3 149 7.6 149 11 C141.42033885 11.88598579 133.9987815 12.15468162 126.37109375 12.125 C125.06659775 12.12234131 123.76210175 12.11968262 122.41807556 12.11694336 C100.21232879 12.03620029 78.00758655 11.50726413 55.80670166 11.07287598 C49.49682676 10.95006253 43.18688726 10.83066202 36.87695312 10.7109375 C24.58457149 10.4772175 12.29226371 10.23983682 0 10 C0 6.7 0 3.4 0 0 Z " fill="#CFDCE8" transform="translate(280,280)"/>
<path d="M0 0 C1.65 0 3.3 0 5 0 C5 40 5 40 4 42 C3.77532169 43.53668865 3.59203195 45.07968054 3.4375 46.625 C3.31181641 47.85089844 3.31181641 47.85089844 3.18359375 49.1015625 C3.12300781 49.72804688 3.06242187 50.35453125 3 51 C1.18777319 52.97941743 -0.62476828 54.95854505 -2.4375 56.9375 C-2.95376953 57.50146484 -3.47003906 58.06542969 -4.00195312 58.64648438 C-7.88671875 62.88671875 -7.88671875 62.88671875 -9 64 C-11.97 64 -14.94 64 -18 64 C-18 47.5 -18 31 -18 14 C-13.71 11.03 -9.42 8.06 -5 5 C-3.35 3.35 -1.7 1.7 0 0 Z " fill="#E0EAF2" transform="translate(501,409)"/>
<path d="M0 0 C19.69772512 3.63241408 37.75675252 10.55612252 49.78125 27.51171875 C51.29085862 29.96483275 52.66576981 32.44773385 54 35 C54.43957031 35.79019531 54.87914062 36.58039063 55.33203125 37.39453125 C62.33935647 50.49886452 65.58996077 65.1854295 65 80 C62.26791341 76.72620659 60.04861549 73.48445532 58 69.75 C50.8791592 57.35729209 42.26011164 45.86582123 33 35 C32.10076639 33.91602452 31.20237351 32.83135121 30.3046875 31.74609375 C24.84521038 25.20026383 19.14935991 18.96929189 13.125 12.9375 C12.1976001 12.0088916 12.1976001 12.0088916 11.25146484 11.06152344 C7.64746676 7.50136961 3.93881315 4.18598189 0 1 C0 0.67 0 0.34 0 0 Z " fill="#FBFCFD" transform="translate(547,120)"/>
<path d="M0 0 C-1 4 -1 4 -2.21484375 5.14453125 C-6.73103537 9.5173517 -10.71222609 14.18984264 -14.640625 19.09375 C-16.13610989 20.93587045 -17.66415745 22.75240215 -19.234375 24.53125 C-32.70030066 39.8950578 -43.73044731 57.83089778 -53 76 C-53.41443359 76.80969238 -53.82886719 77.61938477 -54.25585938 78.45361328 C-67.62583458 104.8648767 -76.31110424 132.79502721 -81 162 C-81.15098145 162.90927246 -81.30196289 163.81854492 -81.45751953 164.75537109 C-85.37413875 189.14657149 -86.19177359 215.96142569 -82.39355469 240.44238281 C-82.0987133 242.35848604 -81.82404635 244.2777122 -81.55957031 246.19824219 C-77.49791118 275.61892279 -69.74209419 325.25790581 -48 347 C-48 348.98 -48 350.96 -48 353 C-64.93399102 337.12589323 -74.12253803 301.88205836 -79.5 280 C-79.70012695 279.19240234 -79.90025391 278.38480469 -80.10644531 277.55273438 C-81.99370815 269.5986406 -83.39820548 261.55904285 -84.75 253.5 C-84.96076172 252.24832031 -85.17152344 250.99664062 -85.38867188 249.70703125 C-87.5898471 236.1246976 -88.23836168 222.79229723 -88.25 209.0625 C-88.25100708 208.23351196 -88.25201416 207.40452393 -88.25305176 206.55041504 C-88.23589156 185.50090358 -86.84682815 164.57170302 -81.53710938 144.12353516 C-80.97642808 141.90680519 -80.4762912 139.6821602 -79.984375 137.44921875 C-70.31464811 94.63554826 -49.46028985 54.32974143 -21 21 C-20.00750409 19.82187433 -19.01533667 18.64347188 -18.0234375 17.46484375 C-3.25768508 0 -3.25768508 0 0 0 Z " fill="#8196B2" transform="translate(154,134)"/>
<path d="M0 0 C1.29719971 0.41523926 1.29719971 0.41523926 2.62060547 0.83886719 C27.92451414 9.05586403 51.44451649 19.90282281 74 34 C92.81 34.495 92.81 34.495 112 35 C112 35.33 112 35.66 112 36 C70 36 70 36 60.6875 30.5625 C43.14208513 20.49053658 25.12693035 12.59155784 6 6 C5.06655762 5.67757324 4.13311523 5.35514648 3.17138672 5.02294922 C-9.89603017 0.61952237 -23.11392515 -2.1171833 -36.6875 -4.375 C-37.45267944 -4.5026474 -38.21785889 -4.6302948 -39.00622559 -4.7618103 C-78.38632136 -11.24416327 -119.44939655 -9.44453232 -158 1 C-158.90411621 1.24057129 -159.80823242 1.48114258 -160.73974609 1.72900391 C-188.86832486 9.34787518 -215.72970505 21.66731241 -240.14257812 37.56054688 C-244.11104405 40.09273484 -247.18697997 41.62339436 -252 42 C-248.2128859 37.64639238 -243.43105298 34.92132347 -238.5625 31.9375 C-237.63018555 31.36604248 -236.69787109 30.79458496 -235.73730469 30.20581055 C-165.95327312 -12.0809669 -78.32517785 -25.15769762 0 0 Z " fill="#8398B4" transform="translate(441,62)"/>
<path d="M0 0 C24.75 0 49.5 0 75 0 C75 2.97 75 5.94 75 9 C74.67 9.33 74.34 9.66 74 10 C49.91 10 25.82 10 1 10 C0.67 9.67 0.34 9.34 0 9 C0 6.03 0 3.06 0 0 Z " fill="#D0DCE8" transform="translate(281,254)"/>
<path d="M0 0 C3.63 0 7.26 0 11 0 C10.4225 0.598125 9.845 1.19625 9.25 1.8125 C3.3423398 10.18168528 2.40965837 18.94042742 2.4430542 28.93974304 C2.4314694 30.19870874 2.41988459 31.45767443 2.40794873 32.7547906 C2.37659317 36.2188862 2.36950114 39.68265636 2.36665154 43.14687669 C2.35922011 46.8939137 2.32888801 50.64077657 2.30142212 54.38771057 C2.25700412 60.86944923 2.22690151 67.35112541 2.20668793 73.83298302 C2.17744209 83.20448389 2.12634869 92.57576698 2.07002535 101.9471396 C1.97922009 117.15374814 1.90593676 132.36038814 1.84375 147.56713867 C1.78332527 162.3337964 1.71460022 177.10037726 1.63476562 191.86694336 C1.62984253 192.77807405 1.62491943 193.68920474 1.61984715 194.62794545 C1.5950969 199.19909501 1.57018404 203.77024368 1.54519033 208.34139192 C1.33825041 246.22748846 1.15977962 284.11367667 1 322 C0.67 322 0.34 322 0 322 C0 215.74 0 109.48 0 0 Z " fill="#96C2D5" transform="translate(207,129)"/>
<path d="M0 0 C12.54 0 25.08 0 38 0 C38.495 5.445 38.495 5.445 39 11 C26.13 11 13.26 11 0 11 C0 7.37 0 3.74 0 0 Z " fill="#96BFD2" transform="translate(350,108)"/>
<path d="M0 0 C11.11430593 11.11430593 8.26672026 45.29429191 8.31393433 60.39935303 C8.30281505 79.10671112 7.27190948 97.55199976 4 116 C2.68 114.35 1.36 112.7 0 111 C0.20496094 109.92363281 0.40992188 108.84726562 0.62109375 107.73828125 C0.89358205 106.26308597 1.16569695 104.78782169 1.4375 103.3125 C1.57220703 102.61060547 1.70691406 101.90871094 1.84570312 101.18554688 C3.91532702 89.82785479 4.17137802 78.39220792 4.125 66.875 C4.12016602 65.60237305 4.11533203 64.32974609 4.11035156 63.01855469 C3.99135796 44.2318455 2.22860875 26.52521412 -1 8 C-1.33503101 6.00028369 -1.66945873 4.00046334 -2 2 C-1.34 1.34 -0.68 0.68 0 0 Z " fill="#8498B4" transform="translate(640,277)"/>
<path d="M0 0 C9.46398074 0 19.11135933 13.04893377 25.875 19.6875 C30.97001025 24.84253983 35.50068642 30.32565907 40 36 C40.9209046 37.10996227 41.84419811 38.21794568 42.76953125 39.32421875 C52.74547856 51.35554522 61.37346039 64.36022724 69 78 C69.66 77.34 70.32 76.68 71 76 C70.67 79.3 70.34 82.6 70 86 C67.04121752 82.4920985 64.79360563 78.97542406 62.625 74.9375 C52.84322921 57.30725709 40.23349829 41.48402244 26.54296875 26.765625 C24.52606507 24.57212607 22.59488388 22.34943886 20.6875 20.0625 C15.78381681 14.37950286 10.06275268 9.44631226 4.51464844 4.40698242 C2.97146954 2.97349758 1.48020409 1.4981946 0 0 Z " fill="#8196B3" transform="translate(542,120)"/>
<path d="M0 0 C0.66 0 1.32 0 2 0 C2.03098619 11.39582162 2.05111158 22.79164212 2.0625 34.1875 C2.06335602 35.03795395 2.06421204 35.8884079 2.06509399 36.76463318 C2.08714324 61.59752105 1.9471884 86.42097182 1.5 111.25 C1.48804218 111.91436947 1.47608437 112.57873894 1.46376419 113.26324081 C1.32036134 121.17572424 1.16646766 129.08796873 1 137 C2.65 137 4.3 137 6 137 C6 137.66 6 138.32 6 139 C3.69 139 1.38 139 -1 139 C-1 140.65 -1 142.3 -1 144 C-1.66 144 -2.32 144 -3 144 C-3.99 145.98 -3.99 145.98 -5 148 C-4.24143086 142.43715964 -4.24143086 142.43715964 -2.9807148 140.15437698 C-1.73435155 137.416439 -1.72182039 135.28588797 -1.68356323 132.27996826 C-1.6639856 131.11331635 -1.64440796 129.94666443 -1.62423706 128.74465942 C-1.61272614 127.46863861 -1.60121521 126.1926178 -1.58935547 124.87792969 C-1.57019049 123.51773905 -1.55016988 122.15756023 -1.52935791 120.7973938 C-1.47532747 117.10774137 -1.4332722 113.41803796 -1.39335394 109.7282095 C-1.34959278 105.87105985 -1.29483576 102.01406675 -1.24124146 98.15704346 C-1.14144351 90.85448991 -1.05154531 83.55184933 -0.96519673 76.24912572 C-0.86640402 67.93469871 -0.75658564 59.6204288 -0.64583755 51.30615377 C-0.41828338 34.20424776 -0.20458686 17.10219586 0 0 Z " fill="#D8E1ED" transform="translate(520,316)"/>
<path d="M0 0 C21.45 0 42.9 0 65 0 C65 0.33 65 0.66 65 1 C44.21 1.33 23.42 1.66 2 2 C1.33897454 7.94922916 0.84125067 13.60631662 0.79467773 19.54907227 C0.78477814 20.35017929 0.77487854 21.15128632 0.76467896 21.97666931 C0.73342413 24.58988626 0.70845113 27.20312131 0.68359375 29.81640625 C0.662993 31.64200782 0.64199577 33.46760496 0.62062073 35.29319763 C0.56572211 40.07211694 0.51617231 44.85107696 0.46777344 49.63006592 C0.41732153 54.51708553 0.36175977 59.40404682 0.30664062 64.29101562 C0.19945371 73.86062714 0.09792297 83.43028952 0 93 C-0.33 93 -0.66 93 -1 93 C-1 1 -1 1 0 0 Z " fill="#DBF5F8" transform="translate(251,159)"/>
<path d="M0 0 C1.44546073 2.89092146 0.24431833 4.78657615 -0.5625 7.76171875 C-1.15986025 10.43775012 -1.15986025 10.43775012 -1 15 C23.75 15.495 23.75 15.495 49 16 C49 16.33 49 16.66 49 17 C32.17 17 15.34 17 -2 17 C-2.66 16.34 -3.32 15.68 -4 15 C-4 4 -4 4 0 0 Z " fill="#B2CDDA" transform="translate(275,216)"/>
<path d="M0 0 C3.3 0 6.6 0 10 0 C10.33 0.33 10.66 0.66 11 1 C18.59 1.33 26.18 1.66 34 2 C34 2.66 34 3.32 34 4 C24.43 4 14.86 4 5 4 C5 3.01 5 2.02 5 1 C3.35 1 1.7 1 0 1 C0 0.67 0 0.34 0 0 Z " fill="#E8ECF3" transform="translate(365,508)"/>
<path d="M0 0 C0.33 0 0.66 0 1 0 C1 1.65 1 3.3 1 5 C-3.80061213 8.64184368 -9.19935017 9.13650572 -15 10 C-15 9.34 -15 8.68 -15 8 C-13.25307205 7.32532438 -11.50231475 6.66055844 -9.75 6 C-8.28820312 5.443125 -8.28820312 5.443125 -6.796875 4.875 C-4 4 -4 4 0 4 C0 2.68 0 1.36 0 0 Z " fill="#BAD7E7" transform="translate(291,206)"/>
<path d="M0 0 C3 1 3 1 5 4 C6.60736867 8.49311241 7.45762579 12.33559746 6 17 C5.67 17 5.34 17 5 17 C4.89042969 16.35933594 4.78085937 15.71867188 4.66796875 15.05859375 C3.67539672 9.6438309 2.37541347 4.96677361 0 0 Z " fill="#C7DCE9" transform="translate(319,215)"/>
<path d="M0 0 C-0.33 1.32 -0.66 2.64 -1 4 C-3.64 4 -6.28 4 -9 4 C-8.67 3.01 -8.34 2.02 -8 1 C-5.07175348 0.02391783 -3.04386724 -0.08226668 0 0 Z " fill="#E6EBF2" transform="translate(325,507)"/>
<path d="M0 0 C0.33 0.66 0.66 1.32 1 2 C0.525625 2.845625 0.05125 3.69125 -0.4375 4.5625 C-2.05721513 8.12587329 -2.61256143 11.12561425 -3 15 C-3.33 15 -3.66 15 -4 15 C-4 4 -4 4 0 0 Z " fill="#CAE0EB" transform="translate(275,216)"/>
<path d="M0 0 C9 2 9 2 11 4 C8.03 3.67 5.06 3.34 2 3 C1.34 2.01 0.68 1.02 0 0 Z " fill="#C0D6E7" transform="translate(308,211)"/>
</svg>
